<svg height="512pt" viewBox="-30 0 512 512.01842" width="512pt" xmlns="http://www.w3.org/2000/svg"><path d="m116.417969 239.964844c-8.859375 60.621094 33.105469 116.941406 93.722656 125.800781 60.621094 8.855469 116.945313-33.105469 125.800781-93.726563 8.859375-60.621093-33.101562-116.941406-93.722656-125.800781-.003906 0-.003906 0-.007812 0-60.15625-9.199219-116.378907 32.105469-125.578126 92.257813-.074218.488281-.148437.980468-.214843 1.46875zm202.640625 29.597656c-7.492188 51.296875-55.148438 86.804688-106.441406 79.3125-51.296876-7.492188-86.804688-55.144531-79.3125-106.441406 7.488281-51.277344 55.117187-86.78125 106.398437-79.316406 51.273437 7.535156 86.773437 55.15625 79.355469 106.445312zm0 0"/><path d="m168.332031 270.945312c-7.789062-30.203124 8.957031-61.324218 38.457031-71.460937 4.46875-1.496094 6.882813-6.328125 5.386719-10.800781-1.492187-4.46875-6.328125-6.878906-10.796875-5.386719-.046875.019531-.097656.035156-.144531.050781-37.925781 13.039063-59.449219 53.050782-49.421875 91.882813 1.277344 4.535156 5.992188 7.175781 10.527344 5.898437 4.394531-1.238281 7.039062-5.71875 5.992187-10.164062zm0 0"/><path d="m208.703125 313.167969c-9.789063-2.988281-18.640625-8.449219-25.703125-15.855469-3.046875-3.59375-8.433594-4.035156-12.027344-.984375s-4.035156 8.433594-.984375 12.027344c.207031.246093.429688.480469.664063.699219 9.09375 9.527343 20.488281 16.550781 33.082031 20.394531.804687.25 1.640625.375 2.484375.375 4.710938.003906 8.535156-3.8125 8.539062-8.523438.003907-3.761719-2.457031-7.085937-6.054687-8.175781zm0 0"/><path d="m332.882812 184.796875 110.960938-63.804687 8.503906 14.792968-110.957031 63.804688zm0 0"/><path d="m217.867188 127.992188.253906-127.992188 17.066406.0351562-.253906 127.9921878zm0 0"/><path d="m.433594 134.988281 8.558594-14.765625 110.738281 64.191406-8.558594 14.761719zm0 0"/><path d="m.0078125 376.207031 110.9453125-63.816406 8.511719 14.792969-110.945313 63.816406zm0 0"/><path d="m217.191406 511.984375.253906-127.992187 17.066407.03125-.253907 127.996093zm0 0"/><path d="m332.636719 327.550781 8.558593-14.765625 110.742188 64.1875-8.558594 14.765625zm0 0"/><path d="m282.757812 140.867188 38.390626-66.515626 14.78125 8.53125-38.390626 66.515626zm0 0"/><path d="m116.359375 82.917969 14.769531-8.53125 38.414063 66.5-14.773438 8.53125zm0 0"/><path d="m21.386719 247.488281h76.796875v17.066407h-76.796875zm0 0"/><path d="m116.425781 429.085938 38.390625-66.511719 14.78125 8.53125-38.390625 66.511719zm0 0"/><path d="m282.808594 371.070312 14.769531-8.53125 38.414063 66.496094-14.769532 8.535156zm0 0"/><path d="m354.171875 247.4375h76.796875v17.066406h-76.796875zm0 0"/></svg>