<svg height="511pt" viewBox="0 -48 511.9944 511" width="511pt" xmlns="http://www.w3.org/2000/svg"><path d="m176.789062 134.507812c8.464844-4.9375 18.082032-7.542968 27.882813-7.554687h.058594v-17.070313c-12.820313.140626-25.398438 3.539063-36.546875 9.875-17.328125 10.140626-29.703125 26.984376-34.199219 46.550782l16.644531 3.808594c3.351563-15.007813 12.839844-27.925782 26.160156-35.609376zm0 0"/><path d="m156.789062 210.367188-14.738281 8.59375c5.882813 10.097656 14.113281 18.628906 23.992188 24.871093l9.089843-14.449219c-7.570312-4.753906-13.867187-11.28125-18.34375-19.015624zm0 0"/><path d="m260.867188 67.234375 38.039062-66.738281 14.828125 8.453125-38.039063 66.738281zm0 0"/><path d="m94.109375 10.15625 14.738281-8.613281 38.769532 66.316406-14.738282 8.613281zm0 0"/><path d="m0 175.273438 76.816406-.417969.089844 17.070312-76.8125.417969zm0 0"/><path d="m96.027344 356.425781 38.039062-66.738281 14.828125 8.453125-38.039062 66.738281zm0 0"/><path d="m422.375 236.492188h-.359375c-4.472656-56.148438-53.613281-98.035157-109.761719-93.5625-1.253906.097656-2.503906.222656-3.753906.367187-21.578125-57.351563-85.566406-86.355469-142.921875-64.777344-57.351563 21.582031-86.355469 85.570313-64.773437 142.921875 11.4375 30.40625 35.628906 54.269532 66.183593 65.296875-21.820312 44.339844-3.5625 97.976563 40.777344 119.796875 12.332031 6.066406 25.898437 9.214844 39.640625 9.195313h174.96875c49.496094 0 89.621094-40.125 89.621094-89.621094 0-49.492187-40.125-89.617187-89.621094-89.617187zm-298.726562-6.828126c-26.199219-44.746093-11.160157-102.257812 33.585937-128.457031 44.75-26.195312 102.261719-11.15625 128.457031 33.589844 2.230469 3.804687 4.1875 7.765625 5.859375 11.847656-42.578125 12.359375-72.398437 50.675781-73.921875 94.984375-16.402344 5.816406-30.753906 16.285156-41.292968 30.128906-22.21875-6.9375-41.035157-21.9375-52.746094-42.050781zm298.726562 168.996094h-174.96875c-40.042969.011719-72.515625-32.4375-72.527344-72.484375-.011718-32.757812 21.941406-61.453125 53.5625-70.011719l6.503906-1.757812-.339843-9.386719c.019531-47.136719 38.25-85.335937 85.386719-85.3125 47.109374.019531 85.292968 38.203125 85.3125 85.3125v8.535157h17.070312c40.066406 0 72.550781 32.480468 72.550781 72.546874 0 40.066407-32.484375 72.546876-72.550781 72.546876zm0 0"/><path d="m198.175781 21.691406h17.070313v34.140625h-17.070313zm0 0"/><path d="m61.925781 110.019531 8.550781-14.773437 29.550782 17.101562-8.550782 14.773438zm0 0"/><path d="m61.777344 257.390625 29.585937-17.035156 8.515625 14.792969-29.585937 17.035156zm0 0"/><path d="m313.238281 112.578125 29.585938-17.035156 8.515625 14.792969-29.585938 17.039062zm0 0"/><path d="m401.039062 364.519531h34.140626v17.070313h-34.140626zm0 0"/><path d="m366.898438 364.519531h17.070312v17.070313h-17.070312zm0 0"/></svg>