<svg height="512pt" viewBox="-16 0 512 512.00027" width="512pt" xmlns="http://www.w3.org/2000/svg"><path d="m232.410156 65.070312-5.222656-20.222656c-41.523438 10.707032-70.527344 48.164063-70.5 91.042969h20.894531c-.015625-33.347656 22.539063-62.480469 54.828125-70.820313zm0 0"/><path d="m120.128906 323.90625h261.136719c54.804687.035156 99.261719-44.363281 99.292969-99.167969.035156-52.972656-41.546875-96.628906-94.457032-99.179687-5.652343-74.78125-70.859374-130.820313-145.640624-125.164063-66.921876 5.058594-120.105469 58.246094-125.167969 125.164063-54.738281 2.636718-96.976563 49.148437-94.34375 103.890625 2.550781 52.910156 46.207031 94.492187 99.179687 94.457031zm0-177.570312h15.667969v-10.445313c0-63.457031 51.445313-114.898437 114.902344-114.898437s114.898437 51.441406 114.898437 114.898437v10.445313h15.667969c43.265625 0 78.339844 35.074218 78.339844 78.339843s-35.074219 78.339844-78.339844 78.339844h-261.136719c-43.265625 0-78.339844-35.074219-78.339844-78.339844s35.074219-78.339843 78.339844-78.339843zm0 0"/><path d="m255.367188 345.894531c-5.160157-2.578125-11.433594-.488281-14.015626 4.671875 0 .003906 0 .003906-.003906.007813l-10.445312 20.890625c-2.617188 5.140625-.570313 11.429687 4.570312 14.050781 5.140625 2.617187 11.429688.570313 14.046875-4.570313.023438-.046874.046875-.09375.070313-.140624l10.445312-20.890626c2.582032-5.160156.496094-11.4375-4.664062-14.019531zm0 0"/><path d="m338.929688 345.894531c-5.160157-2.578125-11.433594-.488281-14.011719 4.671875-.003907.003906-.003907.003906-.003907.007813l-10.445312 20.890625c-2.621094 5.140625-.574219 11.429687 4.566406 14.050781 5.140625 2.617187 11.429688.570313 14.046875-4.570313.023438-.046874.050781-.09375.074219-.140624l10.445312-20.890626c2.582032-5.160156.492188-11.4375-4.667968-14.019531 0 0 0 0-.003906 0zm0 0"/><path d="m407.367188 386.578125c3.980468.023437 7.625-2.214844 9.402343-5.773437l10.445313-20.890626c2.617187-5.140624.574218-11.433593-4.566406-14.050781-5.140626-2.617187-11.429688-.574219-14.046876 4.566407-.023437.046874-.050781.097656-.074218.144531l-10.445313 20.890625c-2.578125 5.160156-.484375 11.433594 4.675781 14.011718 1.433594.71875 3.011719 1.09375 4.609376 1.101563zm0 0"/><path d="m166.015625 380.804688 10.445313-20.890626c2.621093-5.140624.578124-11.433593-4.5625-14.050781-5.140626-2.617187-11.429688-.574219-14.050782 4.566407-.023437.046874-.046875.09375-.070312.144531l-10.449219 20.890625c-2.617187 5.140625-.574219 11.429687 4.566406 14.050781 5.140625 2.617187 11.429688.574219 14.050781-4.566406.023438-.046875.046876-.097657.070313-.144531zm0 0"/><path d="m73.117188 386.578125c3.957031.003906 7.578124-2.234375 9.347656-5.773437l10.445312-20.890626c2.617188-5.140624.574219-11.433593-4.566406-14.050781-5.140625-2.617187-11.429688-.574219-14.046875 4.566407-.027344.046874-.050781.09375-.074219.144531l-10.445312 20.890625c-2.578125 5.160156-.484375 11.433594 4.675781 14.011718 1.445313.726563 3.042969 1.101563 4.664063 1.101563zm0 0"/><path d="m210.011719 413.246094-10.445313 20.890625c-2.617187 5.140625-.574218 11.429687 4.566406 14.050781 5.140626 2.617188 11.429688.574219 14.050782-4.566406.023437-.046875.046875-.097656.070312-.144532l10.445313-20.890624c2.621093-5.140626.574219-11.429688-4.5625-14.050782-5.140625-2.617187-11.433594-.574218-14.050781 4.566406-.023438.046876-.050782.097657-.074219.144532zm0 0"/><path d="m293.578125 413.246094-10.445313 20.890625c-2.621093 5.140625-.574218 11.429687 4.566407 14.050781 5.140625 2.617188 11.429687.574219 14.046875-4.566406.023437-.050782.046875-.097656.070312-.144532l10.445313-20.890624c2.621093-5.140626.574219-11.429688-4.566407-14.050782-5.140624-2.617187-11.429687-.570312-14.046874 4.570313-.023438.046875-.046876.09375-.070313.140625zm0 0"/><path d="m376.03125 449.253906c3.980469.019532 7.625-2.21875 9.402344-5.777344l10.445312-20.890624c2.617188-5.140626.574219-11.429688-4.566406-14.050782-5.140625-2.617187-11.429688-.570312-14.046875 4.570313-.027344.046875-.050781.09375-.074219.140625l-10.445312 20.890625c-2.578125 5.160156-.484375 11.4375 4.675781 14.015625 1.433594.714844 3.011719 1.089844 4.609375 1.101562zm0 0"/><path d="m134.679688 443.476562 10.445312-20.890624c2.621094-5.140626.578125-11.429688-4.5625-14.050782-5.140625-2.617187-11.429688-.574218-14.050781 4.566406-.023438.046876-.046875.097657-.074219.144532l-10.445312 20.890625c-2.617188 5.140625-.574219 11.429687 4.566406 14.050781 5.140625 2.617188 11.429687.574219 14.050781-4.566406.023437-.046875.046875-.097656.070313-.144532zm0 0"/><path d="m56.902344 408.566406c-5.160156-2.578125-11.433594-.488281-14.011719 4.671875 0 .003907-.003906.007813-.003906.007813l-10.445313 20.890625c-2.617187 5.140625-.574218 11.429687 4.566406 14.050781 5.140626 2.617188 11.429688.574219 14.046876-4.566406.023437-.046875.050781-.097656.074218-.144532l10.445313-20.890624c2.582031-5.160157.492187-11.433594-4.667969-14.015626 0 0 0-.003906-.003906-.003906zm0 0"/><path d="m172.910156 510.878906c5.160156 2.574219 11.429688.480469 14.007813-4.679687l10.445312-20.890625c2.621094-5.140625.574219-11.429688-4.566406-14.046875-5.136719-2.621094-11.429687-.574219-14.046875 4.5625-.023438.050781-.050781.097656-.074219.148437l-10.445312 20.890625c-2.578125 5.160157-.488281 11.433594 4.671875 14.011719.003906.003906.007812.003906.007812.003906zm0 0"/><path d="m256.472656 510.878906c5.160156 2.574219 11.433594.480469 14.007813-4.679687l10.445312-20.890625c2.621094-5.140625.574219-11.429688-4.566406-14.046875-5.140625-2.617188-11.429687-.574219-14.046875 4.566406-.023438.046875-.050781.097656-.074219.144531l-10.445312 20.890625c-2.578125 5.160157-.488281 11.433594 4.671875 14.011719.003906.003906.007812.003906.007812.003906zm0 0"/><path d="m340.039062 510.878906c5.160157 2.574219 11.429688.480469 14.007813-4.679687l10.445313-20.890625c2.617187-5.140625.570312-11.429688-4.566407-14.046875-5.140625-2.617188-11.433593-.574219-14.050781 4.566406-.023438.046875-.046875.097656-.070312.144531l-10.445313 20.890625c-2.582031 5.160157-.488281 11.433594 4.671875 14.011719 0 .003906.003906.003906.007812.003906zm0 0"/><path d="m109.132812 471.238281c-5.160156-2.578125-11.433593-.488281-14.015624 4.671875 0 .003906-.003907.007813-.003907.007813l-10.445312 20.894531c-2.617188 5.136719-.574219 11.429688 4.566406 14.046875s11.429687.574219 14.046875-4.566406c.027344-.046875.050781-.09375.074219-.144531l10.445312-20.890626c2.582031-5.160156.492188-11.433593-4.664062-14.015624-.003907 0-.003907 0-.003907-.003907zm0 0"/><path d="m5.785156 510.878906c5.160156 2.574219 11.429688.480469 14.007813-4.679687l10.445312-20.890625c2.617188-5.140625.574219-11.429688-4.566406-14.046875-5.140625-2.617188-11.429687-.574219-14.050781 4.566406-.023438.046875-.046875.09375-.070313.144531l-10.445312 20.890625c-2.582031 5.160157-.488281 11.433594 4.671875 14.011719 0 .003906.003906.003906.007812.003906zm0 0"/><path d="m365.597656 261.234375h41.78125v20.890625h-41.78125zm0 0"/><path d="m323.816406 261.234375h20.890625v20.890625h-20.890625zm0 0"/></svg>