<svg height="512pt" viewBox="-51 0 512 512.00007" width="512pt" xmlns="http://www.w3.org/2000/svg"><path d="m221.847656 512h17.0625v-42.660156h131.316406l-16.253906 9.75c-4.082031 2.355468-5.484375 7.570312-3.132812 11.65625 2.355468 4.082031 7.574218 5.480468 11.65625 3.128906.089844-.050781.175781-.105469.261718-.160156l42.664063-25.597656c4.039063-2.425782 5.34375-7.671876 2.914063-11.707032-.71875-1.195312-1.71875-2.199218-2.914063-2.917968l-42.664063-25.597657c-4.082031-2.351562-9.296874-.953125-11.652343 3.132813-2.292969 3.976562-1.027344 9.058594 2.867187 11.492187l16.253906 9.753907h-131.316406v-18.277344c18.179688-4.625 29.167969-23.117188 24.542969-41.296875-3.070313-12.054688-12.484375-21.46875-24.542969-24.539063v-28.019531c15.023438-3.878906 25.539063-17.402344 25.597656-32.917969v-1.546875c49.207032-8.347656 85.238282-50.933593 85.324219-100.84375v-88.234375l54.558594-23.378906c4.339844-1.832031 6.371094-6.835938 4.539063-11.179688-1.085938-2.578124-3.371094-4.457031-6.109376-5.03125l-53.933593-11.527343c-.476563-1.929688-1.144531-3.808594-1.996094-5.605469 1.933594-4.023438 2.941406-8.429688 2.941406-12.894531v-17.0625c.03125-16.492188-13.316406-29.886719-29.808593-29.917969-14.886719-.0273438-27.519532 10.914062-29.617188 25.652344h-.300781c-14.136719 0-25.597657 11.460937-25.597657 25.597656s11.460938 25.597656 25.597657 25.597656v15.5625l-25.367188 69.761719h-42.890625v-24.890625c-.042968-42.785156-34.714844-77.457031-77.5-77.5h-110.214844c-18.847656-.003906-34.132812 15.277344-34.132812 34.125 0 14.5 9.160156 27.417969 22.84375 32.214844-10.484375 15.664062-6.285156 36.859375 9.378906 47.347656 5.613282 3.757812 12.21875 5.765625 18.976563 5.765625h4.582031c-9.425781 16.324219-3.832031 37.199219 12.492188 46.621094 5.183593 2.996093 11.066406 4.570312 17.054687 4.574219h37.429687c9.285157 36.066406 37.433594 64.242187 73.492188 73.558593v3.234375c.058594 15.515625 10.574219 29.039063 25.597656 32.917969v28.019531c-18.179687 4.628906-29.167968 23.117188-24.542968 41.296875 3.070312 12.054688 12.484374 21.46875 24.542968 24.539063v18.277344h-97.117187l-14.660157-29.410157c-1.453124-2.910156-4.429687-4.738281-7.679687-4.71875h-68.257813c-4.710937-.003906-8.535156 3.816407-8.535156 8.527344 0 1.324219.304688 2.632813.898438 3.816406l15.164062 30.316407-15.164062 30.316406c-2.105469 4.214844-.394532 9.339844 3.820312 11.445312 1.183594.59375 2.492188.902344 3.816406.902344h68.257813c3.234375 0 6.191406-1.828125 7.636719-4.71875l14.703125-29.414062h97.117187zm127.984375-428.867188 23.183594 4.96875-23.183594 9.929688zm-68.257812-31.882812c0-4.714844 3.820312-8.535156 8.53125-8.535156h8.53125c4.714843 0 8.535156-3.820313 8.535156-8.53125v-4.265625c0-7.070313 5.730469-12.800781 12.796875-12.800781 7.070312 0 12.796875 5.730468 12.796875 12.800781v15.792969c-14.617187-7.148438-32.261719-1.089844-39.40625 13.527343-.089844.179688-.175781.359375-.257813.542969h-2.996093c-4.710938 0-8.53125-3.820312-8.53125-8.53125zm-143.566407 169.101562c-.746093-4.050781-4.277343-6.988281-8.398437-6.988281h-44.28125c-9.425781 0-17.066406-7.636719-17.066406-17.0625s7.640625-17.066406 17.066406-17.066406c4.710937 0 8.53125-3.820313 8.53125-8.53125s-3.820313-8.53125-8.53125-8.53125h-34.128906c-9.425781 0-17.066407-7.640625-17.066407-17.066406s7.640626-17.066407 17.066407-17.066407c4.710937 0 8.53125-3.820312 8.53125-8.53125 0-4.710937-3.820313-8.53125-8.53125-8.53125h-17.066407c-9.425781 0-17.066406-7.640624-17.066406-17.066406 0-9.425781 7.640625-17.066406 17.066406-17.066406h110.214844c33.359375.042969 60.390625 27.078125 60.433594 60.4375v33.421875c0 4.710937 3.820312 8.53125 8.53125 8.53125h57.40625c3.585938-.003906 6.789062-2.246094 8.011719-5.613281l27.917969-76.792969c.34375-.933594.519531-1.921875.523437-2.917969v-21.332031c0-7.066406 5.730469-12.796875 12.796875-12.796875 7.070312 0 12.800781 5.730469 12.800781 12.796875v132.253906c-.054687 47.101563-38.222656 85.273438-85.324219 85.324219h-25.597656c-41.128906.011719-76.398437-29.351562-83.839844-69.804688zm75.304688 86.871094v-.359375c2.816406.230469 5.667969.359375 8.535156.359375h25.597656c0 9.421875-7.640624 17.0625-17.066406 17.0625-9.425781 0-17.066406-7.640625-17.066406-17.0625zm0 93.855469c0-9.425781 7.640625-17.066406 17.066406-17.066406 9.425782 0 17.066406 7.640625 17.066406 17.066406s-7.640624 17.066406-17.066406 17.066406c-9.425781 0-17.066406-7.640625-17.066406-17.066406zm-150.324219 34.128906 8.535157 17.066407h-15.054688l-8.53125-17.066407zm34.132813 51.195313h-49.183594l8.53125-17.066406h49.183594zm-6.519532-34.128906-8.535156-17.066407h15.054688l8.53125 17.066407zm0 0"/></svg>