<svg height="512pt" viewBox="-52 0 512 512.00003" width="512pt" xmlns="http://www.w3.org/2000/svg"><path d="m104.136719 451.253906h286.371093v17.355469h-286.371093zm0 0" fill="#a8a8a8"/><path d="m104.136719 468.609375h-60.746094v-8.675781l-17.355469-34.714844h69.421875l17.355469 34.714844zm0 0" fill="#cdcdcd"/><path d="m338.441406 65.085938 60.746094 13.015624-60.746094 26.035157-8.679687-8.679688v-17.355469zm0 0" fill="#c38325"/><path d="m316.746094 0c-11.980469 0-21.695313 9.714844-21.695313 21.695312v4.339844h-8.675781c-9.585938 0-17.359375 7.769532-17.359375 17.355469s7.773437 17.355469 17.359375 17.355469h17.355469v-4.433594c9.476562 7.242188 23.03125 5.425781 30.273437-4.050781 2.898438-3.792969 4.457032-8.4375 4.4375-13.210938v-17.355469c0-11.980468-9.714844-21.695312-21.695312-21.695312zm0 0" fill="#c38325"/><path d="m216.949219 286.371094h17.355469v225.628906h-17.355469zm0 0" fill="#a8a8a8"/><path d="m225.628906 329.761719c-14.378906 0-26.035156-11.65625-26.035156-26.03125v-26.035157h52.066406v26.035157c0 14.375-11.65625 26.03125-26.03125 26.03125zm0 0" fill="#c38325"/><path d="m355.796875 494.644531c-4.792969.003907-8.679687-3.878906-8.683594-8.671875-.003906-3.046875 1.59375-5.875 4.207031-7.445312l31.003907-18.59375-30.996094-18.597656c-4.0625-2.542969-5.296875-7.898438-2.753906-11.960938 2.476562-3.960938 7.644531-5.246094 11.691406-2.914062l43.390625 26.035156c4.105469 2.46875 5.433594 7.800781 2.964844 11.90625-.730469 1.21875-1.75 2.234375-2.964844 2.964844l-43.390625 26.035156c-1.347656.816406-2.894531 1.242187-4.46875 1.242187zm0 0" fill="#a8a8a8"/><path d="m251.660156 399.1875c0 14.375-11.65625 26.03125-26.03125 26.03125-14.378906 0-26.035156-11.65625-26.035156-26.03125 0-14.378906 11.65625-26.035156 26.035156-26.035156 14.375 0 26.03125 11.65625 26.03125 26.035156zm0 0" fill="#cdcdcd"/><path d="m74.671875 472.488281 15.535156-7.757812-19.757812-39.511719h-19.40625zm0 0" fill="#a8a8a8"/><path d="m316.746094 43.390625c-11.980469 0-21.695313 9.710937-21.695313 21.695313v21.695312l-28.402343 78.101562h-58.378907v-33.992187c0-38.742187-31.402343-70.144531-70.140625-70.144531h-112.09375c-14.378906 0-26.035156 11.65625-26.035156 26.035156 0 14.375 11.65625 26.03125 26.035156 26.03125h17.355469c-14.378906 0-26.035156 11.65625-26.035156 26.035156s11.65625 26.035156 26.035156 26.035156h34.710937c-14.378906 0-26.035156 11.652344-26.035156 26.03125 0 14.378907 11.65625 26.035157 26.035156 26.035157h45.039063c8.363281 45.238281 47.804687 78.074219 93.808594 78.101562h26.035156c52.71875 0 95.457031-42.738281 95.457031-95.457031v-134.507812c0-11.984376-9.714844-21.695313-21.695312-21.695313zm0 0" fill="#ea9d2d"/><path d="m43.390625 459.933594-17.355469 34.710937h69.421875l17.355469-34.710937zm0 0" fill="#a8a8a8"/></svg>